<svg xmlns="http://www.w3.org/2000/svg" viewBox="0 0 307.1 182.9"><defs/><defs><clipPath id="a" clipPathUnits="userSpaceOnUse"><path d="M0 137.2h230.3V0H0z"/></clipPath></defs><g clip-path="url(#a)" transform="matrix(1.33333 0 0 -1.33333 0 182.9)"><path fill="#fff" d="M30 77.5c-2.3 8.9-4.6 17.4-6.8 24-.2.7-.5.8-1.5.3l-4.3-2.5c-.8-.5-1.2-1-1.4-2-2.2-9.1-4.4-20.3-6.7-31.8 0-.5 0-.7.6-.4l4.1 2.5c.4.2.7.6.8 1l1 5.8 7.9 4.5 1-4.5c0-.4.4-.5.9-.2l3.9 2.3c.5.2.7.5.6 1m21.1 22.7L49.1 99V77.2L.2 49 0 99.2l65.6 38 .1-28.6zm-31.5-4.5c1-3.9 2.2-8.6 3-12.6l-6-3.6c.6 5 1.8 11 2.8 16.1zm65.2-14v3.4c0 4.8-.9 7.6-2.6 8.7-1.8 1-4.6.2-8.1-2l-7.7-4.4c-.7-.3-.9-.7-.9-1.2l.1-28.4c0-.6.3-.6.9-.4l8 4.8c3.2 1.7 5.7 3.8 7.4 6.7 2 3.2 3 7.5 3 12.9m12.2-26.2L53.4 30l-.2 66.5 44 25.3zM79.7 79.8c0-4.3-.1-7-1.3-9.2-.8-1.6-2.3-2.8-4.5-4L71 64.7v20.4l2.9 1.7c2 1.2 3.6 1.7 4.4.9 1-.8 1.4-3 1.4-6.7zM53.4 20.4l17.8-10.2L53.5 0zm92.8 66.8c0 3.7-.9 6.4-2.4 8.6-1.3 2-3.4 3.8-6.5 5.6l-7 4c-.4.3-.7.2-.7-.5V77.2c0-.5.3-.9.8-1.2l3.6-2.1c.5-.2.7-.1.7.4v9.5l2.6-1.3c6-3.6 9-2.1 9 4.3zm14.2-41.3l-39.6 23 .1 53 61.4-35.4-22-12.7v-2.5zM140 94.2c.6-1 1-2.3 1-4v-.4c0-2-.3-3-1-3.2-.7-.4-1.5-.1-3.5 1l-1.8 1 .1 9.4 1.9-1a8 8 0 003.3-2.8m-11.6-45.5c-9-2.7-19.7-6.3-30.7-10-.5-.2-.6-.4 0-.7l4.1-2.4c.4-.2 1-.3 1.2-.1l5.5 2 8-4.6-3.6-3.1c-.2-.2-.1-.5.4-.8l3.9-2.3c.5-.3.8-.3 1 0a346 346 0 0117.4 17.9c.4.5.4.8-.5 1.3l-4.3 2.6c-.7.4-1.6.5-2.4.2m-7.7 15.7l43.8-25.3L97.2 0 53.4 25.3zM119.5 36l-6 3.4c4.5 1.8 10.3 3.9 15.1 5.5l.3-.1c-3-2.8-6.3-6.2-9.4-8.8M222 94l-.4-4c-.1-.5-.3-.8-.7-1.1l-5.3-3 .1-25.1c0-.5-.3-.9-.6-1l-4.3-2.5c-.4-.2-.5-.1-.5.4v25.1l-6-3.4c-.3-.2-.6 0-.6.3v3.7c0 .4.2.8.6 1l17.2 9.9c.4.3.6.3.5-.3m8.2 15.3l-65.7-37.9.2-50.3 65.6 38z"/></g></svg>