<?xml version="1.0" standalone="no"?>
<!DOCTYPE svg PUBLIC "-//W3C//DTD SVG 20010904//EN"
 "http://www.w3.org/TR/2001/REC-SVG-20010904/DTD/svg10.dtd">
<svg version="1.0" xmlns="http://www.w3.org/2000/svg"
 width="1500.000000pt" height="544.000000pt" viewBox="0 0 1500.000000 544.000000"
 preserveAspectRatio="xMidYMid meet">

<g transform="translate(0.000000,544.000000) scale(0.100000,-0.100000)"
fill="#000000" stroke="none">
<path d="M3795 5428 c-370 -41 -659 -236 -806 -543 -157 -327 -121 -708 93
-997 115 -155 320 -292 520 -348 211 -58 492 -41 693 42 228 95 440 310 525
530 53 136 64 199 63 358 -1 123 -5 160 -27 244 -42 162 -105 280 -212 395
-121 132 -314 248 -479 290 -73 19 -239 43 -275 40 -8 -1 -51 -6 -95 -11z
m299 -501 c177 -88 276 -255 276 -467 0 -145 -43 -254 -143 -358 -119 -124
-285 -169 -458 -124 -210 55 -359 255 -359 482 0 155 42 271 132 366 102 108
197 145 364 141 105 -2 113 -4 188 -40z"/>
<path d="M13530 5394 c-8 -8 -188 -428 -400 -932 l-387 -917 260 -3 c143 -1
262 -1 264 2 2 2 31 70 63 151 33 82 65 154 71 162 9 10 80 13 364 13 315 0
354 -2 366 -16 8 -10 41 -83 74 -163 l60 -146 273 -3 c269 -2 273 -2 262 17
-8 15 -753 1777 -777 1839 -4 9 -62 12 -243 12 -203 0 -239 -2 -250 -16z m280
-681 c46 -112 170 -434 170 -444 0 -10 -413 -13 -422 -3 -3 3 37 112 89 242
52 130 99 247 104 260 5 12 12 22 17 22 5 0 24 -35 42 -77z"/>
<path d="M5180 4466 l0 -926 250 0 250 0 0 280 0 280 113 0 c105 0 115 -2 134
-22 11 -13 96 -137 189 -276 110 -165 175 -254 188 -258 12 -2 143 -3 292 -2
l272 3 -214 310 c-117 171 -213 315 -214 321 0 6 17 18 38 28 62 30 158 103
205 157 90 103 127 217 127 396 0 136 -12 196 -56 290 -72 152 -236 268 -450
319 -58 14 -154 17 -596 21 l-528 4 0 -925z m1013 461 c85 -42 112 -87 112
-186 0 -131 -62 -216 -176 -240 -27 -6 -140 -11 -249 -11 l-200 0 0 236 0 235
228 -3 c226 -3 227 -3 285 -31z"/>
<path d="M7020 4465 l0 -925 240 0 240 0 0 483 c0 471 3 557 21 557 8 0 273
-394 437 -649 l34 -54 234 354 c128 194 238 355 243 357 8 3 11 -158 11 -522
l0 -526 250 0 250 0 0 925 0 925 -253 0 c-206 0 -256 -3 -274 -15 -11 -8 -117
-170 -234 -360 -118 -190 -217 -345 -221 -345 -3 0 -99 150 -211 333 -113 182
-214 343 -225 357 l-20 25 -261 3 -261 3 0 -926z"/>
<path d="M1220 4460 l0 -920 250 0 250 0 2 333 3 332 438 3 437 2 0 210 0 210
-440 0 -440 0 0 160 0 160 485 0 485 0 0 215 0 215 -735 0 -735 0 0 -920z"/>
<path d="M9302 4773 l4 -608 26 -95 c48 -177 119 -299 226 -386 309 -253 965
-238 1234 29 103 102 163 205 204 353 11 42 19 130 24 299 10 282 12 960 4
993 l-6 22 -254 0 -253 0 -3 -587 -3 -588 -29 -63 c-46 -100 -120 -153 -242
-172 -156 -26 -296 27 -360 135 -57 97 -57 102 -61 713 l-4 562 -256 0 -255 0
4 -607z"/>
<path d="M11250 4460 l0 -920 700 0 700 0 0 215 0 215 -455 0 -455 0 0 705 0
705 -245 0 -245 0 0 -920z"/>
<path d="M10 3140 c0 -3 72 -129 159 -280 l159 -275 958 -6 c1025 -6 993 -4
1149 -55 252 -83 478 -287 596 -539 71 -151 83 -214 83 -425 0 -172 -2 -191
-27 -273 -56 -181 -143 -323 -278 -452 -137 -132 -303 -221 -484 -261 -127
-28 -332 -24 -460 10 -381 100 -662 398 -747 791 -7 35 -12 119 -12 200 1 116
6 156 27 236 27 105 79 224 126 294 l30 45 -318 0 -318 0 -32 -102 c-56 -182
-65 -243 -65 -468 -1 -160 3 -224 17 -295 127 -623 590 -1101 1202 -1240 502
-114 1045 37 1418 394 295 283 454 615 486 1016 23 285 -31 558 -160 820 -211
426 -583 717 -1074 837 -89 22 -97 22 -1263 27 -644 4 -1172 4 -1172 1z"/>
</g>
</svg>
